<svg version="1.1" xmlns="http://www.w3.org/2000/svg"
   viewBox="0 0 100 100">
<!-- White rounded square background -->
<rect x="0" y="0" width="100" height="100" rx="20" fill="#FFFFFF"/>
<!-- Bucket icon scaled and centered -->
<g transform="translate(50, 48) scale(0.18) translate(-512, -420) translate(512, 420) rotate(-8) translate(-512, -420)">
  <!-- Bucket body -->
  <path fill="#1E1B4B" d="M698.416138,501.385345 C688.411438,513.680542 676.680115,523.467224 663.491333,531.479309 C659.147705,534.117981 659.576294,538.194885 659.493774,542.029602 C659.216919,554.889282 654.619812,566.145325 646.798706,576.041748 C634.337769,591.809021 618.099548,602.777222 600.046692,611.110718 C573.469788,623.379211 545.360840,629.592834 516.303955,632.475647 C482.980988,635.781799 450.146851,633.330872 417.764679,625.271118 C391.647980,618.770630 367.195709,608.454651 346.489716,590.684326 C332.196106,578.417236 321.479523,563.898926 319.105286,544.564941 C318.356201,538.465027 318.138031,532.295532 317.789154,526.151489 C316.374268,501.234650 315.050629,476.312561 313.602966,451.397644 C311.991089,423.656647 310.355835,395.916534 308.593018,368.184814 C306.767151,339.461517 304.836609,310.744446 302.837128,282.032654 C301.385437,261.187286 311.829407,246.797501 328.058319,235.783768 C349.777039,221.044403 374.329559,213.187927 399.694305,207.749283 C431.544250,200.920059 463.832672,197.875626 496.386047,198.776398 C542.219727,200.044678 587.379578,205.500793 629.861023,224.241913 C645.352051,231.075912 659.812927,239.728088 669.463440,254.420456 C677.658752,266.897339 679.132690,279.761414 671.153564,292.917999 C669.607544,295.467285 669.865723,296.895538 671.776855,299.328796 C682.303284,312.731201 695.196411,324.183563 703.321106,339.599243 C713.787109,359.457123 720.434021,380.185638 722.521423,402.613434 C724.449890,423.332581 721.076782,443.027985 713.812439,462.265656 C712.723572,465.149139 712.277893,467.841309 713.014282,470.976868 C714.076538,475.500061 713.008484,479.885986 710.669861,483.946198 C707.167603,490.026459 703.217529,495.786316 698.416138,501.385345 M566.396912,605.819519 C580.250122,601.881226 593.411438,596.319702 605.792236,588.950134 C618.244324,581.538147 629.374634,572.662476 637.097839,560.125610 C638.809875,557.346558 640.595276,554.511780 640.322693,551.077637 C638.509705,549.855957 636.929565,550.607422 635.331909,550.971863 C626.735718,552.933167 618.179504,555.207153 609.362610,555.887756 C599.918701,556.616821 590.282104,557.938904 581.638123,552.450195 C578.177246,550.252686 574.510437,548.957703 570.532959,548.282593 C543.094910,543.625610 518.235657,533.162781 496.227325,515.913269 C464.427948,490.989716 444.105286,458.910034 435.472900,419.483643 C434.185944,413.605865 432.689850,408.067627 429.637756,402.717133 C424.281433,393.327301 426.129913,381.002747 433.187012,372.831604 C440.305450,364.589355 451.932068,361.335571 462.279022,364.690155 C476.818665,369.404053 484.489410,384.097321 479.912384,398.975494 C478.612488,403.200958 477.618439,407.242004 478.796753,411.643677 C492.009552,461.001862 523.299988,491.919861 572.985352,504.134613 C576.368591,504.966309 579.552856,504.929474 582.595032,503.014862 C587.844482,499.710999 593.680237,499.085754 599.763733,498.564270 C615.572021,497.209015 630.511414,492.979370 643.490173,483.267639 C645.687622,481.623352 646.694824,479.809937 646.778931,477.018555 C646.994446,469.866150 647.485291,462.720215 647.957275,455.577728 C649.515259,432.003815 651.113342,408.432587 652.696594,384.860352 C653.621887,371.083038 654.576294,357.307587 655.461426,343.527710 C655.880188,337.009247 656.167236,330.482300 656.554016,323.203156 C649.824890,326.137604 644.122559,328.812958 638.280945,331.138306 C615.721497,340.118652 592.266174,345.396118 568.214539,348.560150 C545.024109,351.610931 521.766296,352.413422 498.433136,352.295685 C496.583923,352.286346 494.792847,352.114532 493.073395,351.331757 C489.475372,349.693787 487.524078,346.924500 488.070435,343.008057 C488.584686,339.321838 490.488770,336.371552 494.524994,335.687805 C497.309906,335.216095 500.141876,334.885376 502.963135,334.786957 C521.947327,334.124817 540.802124,332.242126 559.452087,328.623169 C583.207764,324.013458 606.514404,317.942413 628.343628,307.091095 C637.532837,302.523102 645.995117,297.022644 653.027649,289.493835 C660.784058,281.190155 661.553101,273.965820 655.843628,264.107910 C653.115784,259.398071 649.168152,255.834656 644.953125,252.526871 C635.956360,245.466537 625.717346,240.889160 615.215393,236.446884 C583.409729,222.993179 549.833252,218.469650 515.888367,216.614807 C491.299896,215.271225 466.610077,215.646866 442.002777,218.189011 C416.061279,220.868973 390.618225,225.652939 366.236115,235.043472 C352.371216,240.383408 338.848480,246.603836 328.284912,257.570923 C322.827759,263.236542 318.645782,269.737122 319.517395,278.030121 C321.588654,297.736450 322.070251,317.536072 323.334991,337.288696 C324.121735,349.575195 324.761627,361.871033 325.532532,374.158630 C326.771942,393.915222 328.124390,413.664825 329.315308,433.424286 C330.126038,446.875519 330.672333,460.342651 331.462067,473.795319 C332.690186,494.714478 334.211731,515.618347 335.225067,536.547241 C335.647308,545.267090 337.795715,553.246826 342.239929,560.695190 C349.924957,573.575317 361.598450,582.091370 374.070984,589.667969 C403.459961,607.520813 436.142212,614.275452 469.788879,616.458862 C502.213318,618.563049 534.323547,615.481750 566.396912,605.819519 M690.662720,433.226196 C697.500793,401.826355 684.931152,362.367371 671.649048,348.122528 C669.126404,389.205505 666.619995,430.024414 664.077759,471.426666 C667.674072,470.107544 668.520142,467.776276 669.953308,466.017181 C672.887146,462.415955 674.924622,457.708923 679.193420,455.678558 C684.896973,452.965851 686.838135,448.133911 688.371521,442.780029 C689.195679,439.902405 689.844971,436.974670 690.662720,433.226196 M686.141296,472.608337 C685.457520,473.550873 684.763245,474.485992 684.091431,475.436981 C663.789429,504.176605 636.057983,519.765137 600.994934,522.335388 C596.920776,522.634094 592.534058,522.617859 591.720886,527.844360 C591.186829,531.277283 595.030273,533.355225 601.554260,532.761536 C618.588745,531.211304 635.031738,527.392883 650.315430,519.332092 C668.550964,509.714447 683.243225,496.297363 694.329102,478.912659 C696.342285,475.755463 696.903076,472.084320 694.213257,469.726135 C691.510864,467.356903 688.729431,469.826233 686.141296,472.608337 M468.779510,391.135925 C468.787567,390.137360 468.874023,389.132202 468.790771,388.141296 C468.292847,382.214935 465.010803,378.118866 459.678253,376.087280 C454.235413,374.013702 449.168762,375.382294 445.073212,379.634430 C441.094482,383.765350 439.320465,388.502960 441.361847,394.205688 C443.501526,400.183167 449.093079,403.896759 455.713318,403.691284 C462.030243,403.495209 466.552002,399.410309 468.779510,391.135925z"/>
  <!-- Bucket rim -->
  <path fill="#1E1B4B" d="M502.156433,318.387878 C465.284424,319.374573 429.197052,316.918335 393.711121,308.342987 C379.575989,304.927185 365.976959,300.090698 353.907501,291.590118 C337.422485,279.979645 336.573608,263.866913 351.981354,250.967453 C363.821198,241.055054 378.236847,236.760483 392.724548,232.881653 C417.243042,226.317215 442.328613,223.804184 467.634186,222.552673 C494.990662,221.199692 522.210571,222.432739 549.320679,225.805466 C570.820740,228.480270 591.948975,233.017746 611.957214,241.756424 C617.478333,244.167801 622.690430,247.149811 627.447327,250.803467 C641.625488,261.693329 641.647766,278.924896 627.472168,289.731506 C614.622986,299.526886 599.627502,304.563416 584.185669,308.286469 C557.401855,314.744232 530.166870,317.820160 502.156433,318.387878 M396.002441,291.416473 C420.300629,297.564758 444.988281,300.962830 470.030304,301.716095 C494.867096,302.463226 519.672485,302.023865 544.341064,298.710358 C564.166748,296.047363 583.859192,292.687073 602.447327,284.848694 C608.430237,282.325836 614.309875,279.500122 618.649963,274.381561 C621.559753,270.949829 621.168274,267.690247 617.940491,264.723022 C614.597900,261.650238 610.730164,259.318115 606.619629,257.480133 C590.248474,250.160034 573.004395,245.900681 555.325500,243.337128 C526.082886,239.096725 496.709137,237.727737 467.176147,239.183823 C443.019012,240.374847 419.082458,242.916412 395.680725,249.276764 C383.922943,252.472427 372.324677,256.132141 362.515289,263.798096 C360.197113,265.609741 357.888641,267.530487 358.640015,270.834442 C361.012787,271.954224 362.226044,268.306213 364.393951,270.057343 C362.316864,277.317017 362.437195,277.625946 370.044647,281.675049 C378.025116,285.922699 386.534027,288.797913 396.002441,291.416473z"/>
  <!-- Orange water -->
  <ellipse cx="502" cy="275" rx="120" ry="38" fill="#F59E0B"/>
</g>
</svg>
